#N canvas 1286 194 474 386 10;
#X obj 18 162 dac~;
#N canvas 379 24 1167 937 karplusStrongSynth 0;
#X obj 162 47 inlet;
#X obj 117 147 noise~;
#X obj 117 176 *~;
#X obj 162 127 bng 15 250 50 0 empty empty empty 17 7 0 10 #fcfcfc #000000 #000000;
#N canvas 603 310 450 300 env 0;
#X obj 37 37 inlet;
#X obj 47 191 tgl 15 0 empty empty empty 17 7 0 10 #fcfcfc #000000 #000000 0 1;
#X obj 41 67 t b b, f 9;
#X msg 41 141 0;
#X msg 146 140 1;
#X obj 47 211 outlet;
#X obj 41 104 del 20;
#X connect 0 0 2 0;
#X connect 1 0 5 0;
#X connect 2 0 6 0;
#X connect 2 1 4 0;
#X connect 3 0 1 0;
#X connect 4 0 1 0;
#X connect 6 0 3 0;
#X restore 162 147 pd env;
#X obj 117 390 delwrite~ del 500;
#X obj 262 276 delread4~ del;
#X floatatom 323 146 5 0 0 0 - - - 0;
#X text 320 126 MIDI NOTE;
#X obj 162 80 t b f;
#X obj 262 393 outlet~;
#X obj 323 167 sig~;
#X obj 323 203 mtof~;
#X obj 262 313 *~ 0.999;
#X obj 262 350 lop~ 3000;
#X obj 262 248 /~;
#X obj 262 203 sig~ 1000;
#X connect 0 0 9 0;
#X connect 1 0 2 0;
#X connect 2 0 5 0;
#X connect 3 0 4 0;
#X connect 4 0 2 1;
#X connect 6 0 13 0;
#X connect 7 0 11 0;
#X connect 9 0 3 0;
#X connect 9 1 7 0;
#X connect 11 0 12 0;
#X connect 12 0 15 1;
#X connect 13 0 14 0;
#X connect 14 0 5 0;
#X connect 14 0 10 0;
#X connect 15 0 6 0;
#X connect 16 0 15 0;
#X restore 18 86 pd karplusStrongSynth;
#X floatatom 18 61 5 0 0 0 - - - 0;
#X obj 18 34 t b f;
#X obj 18 9 r notes @hv_param 60 72 65;
#X obj 154 149 s notes;
#X msg 154 121 60;
#X obj 18 138 *~ 0.5;
#X connect 1 0 7 0;
#X connect 2 0 1 0;
#X connect 3 0 2 0;
#X connect 3 1 2 0;
#X connect 4 0 3 0;
#X connect 6 0 5 0;
#X connect 7 0 0 0;
#X connect 7 0 0 1;
