#N canvas 195 119 1678 839 10;
#X obj 19 389 dac~;
#N canvas 379 24 1167 937 karplusStrongSynth 0;
#X obj 162 47 inlet;
#X obj 117 147 noise~;
#X obj 117 176 *~;
#X obj 162 127 bng 15 250 50 0 empty empty empty 17 7 0 10 #fcfcfc #000000 #000000;
#N canvas 603 310 450 300 env 0;
#X obj 37 37 inlet;
#X obj 47 191 tgl 15 0 empty empty empty 17 7 0 10 #fcfcfc #000000 #000000 0 1;
#X obj 41 67 t b b, f 9;
#X msg 41 141 0;
#X msg 146 140 1;
#X obj 47 211 outlet;
#X obj 41 104 del 20;
#X connect 0 0 2 0;
#X connect 1 0 5 0;
#X connect 2 0 6 0;
#X connect 2 1 4 0;
#X connect 3 0 1 0;
#X connect 4 0 1 0;
#X connect 6 0 3 0;
#X restore 162 147 pd env;
#X floatatom 323 146 5 0 0 0 - - - 0;
#X text 320 126 MIDI NOTE;
#X obj 162 80 t b f;
#X obj 262 393 outlet~;
#X obj 323 167 sig~;
#X obj 323 203 mtof~;
#X obj 262 313 *~ 0.999;
#X obj 262 350 lop~ 3000;
#X obj 262 248 /~;
#X obj 262 203 sig~ 1000;
#X obj 262 276 delread4~ del1;
#X obj 117 390 delwrite~ del1 500;
#X connect 0 0 7 0;
#X connect 1 0 2 0;
#X connect 2 0 16 0;
#X connect 3 0 4 0;
#X connect 4 0 2 1;
#X connect 5 0 9 0;
#X connect 7 0 3 0;
#X connect 7 1 5 0;
#X connect 9 0 10 0;
#X connect 10 0 13 1;
#X connect 11 0 12 0;
#X connect 12 0 8 0;
#X connect 12 0 16 0;
#X connect 13 0 15 0;
#X connect 14 0 13 0;
#X connect 15 0 11 0;
#X restore 18 86 pd karplusStrongSynth;
#X floatatom 18 61 5 0 0 0 - - - 0;
#X obj 18 34 t b f;
#N canvas 379 24 1167 937 karplusStrongSynth 0;
#X obj 162 47 inlet;
#X obj 117 147 noise~;
#X obj 117 176 *~;
#X obj 162 127 bng 15 250 50 0 empty empty empty 17 7 0 10 #fcfcfc #000000 #000000;
#N canvas 603 310 450 300 env 0;
#X obj 37 37 inlet;
#X obj 47 191 tgl 15 0 empty empty empty 17 7 0 10 #fcfcfc #000000 #000000 0 1;
#X obj 41 67 t b b, f 9;
#X msg 41 141 0;
#X msg 146 140 1;
#X obj 47 211 outlet;
#X obj 41 104 del 20;
#X connect 0 0 2 0;
#X connect 1 0 5 0;
#X connect 2 0 6 0;
#X connect 2 1 4 0;
#X connect 3 0 1 0;
#X connect 4 0 1 0;
#X connect 6 0 3 0;
#X restore 162 147 pd env;
#X floatatom 323 146 5 0 0 0 - - - 0;
#X text 320 126 MIDI NOTE;
#X obj 162 80 t b f;
#X obj 262 393 outlet~;
#X obj 323 167 sig~;
#X obj 323 203 mtof~;
#X obj 262 313 *~ 0.999;
#X obj 262 350 lop~ 3000;
#X obj 262 248 /~;
#X obj 262 203 sig~ 1000;
#X obj 262 276 delread4~ del2;
#X obj 117 390 delwrite~ del2 500;
#X connect 0 0 7 0;
#X connect 1 0 2 0;
#X connect 2 0 16 0;
#X connect 3 0 4 0;
#X connect 4 0 2 1;
#X connect 5 0 9 0;
#X connect 7 0 3 0;
#X connect 7 1 5 0;
#X connect 9 0 10 0;
#X connect 10 0 13 1;
#X connect 11 0 12 0;
#X connect 12 0 8 0;
#X connect 12 0 16 0;
#X connect 13 0 15 0;
#X connect 14 0 13 0;
#X connect 15 0 11 0;
#X restore 209 86 pd karplusStrongSynth;
#X floatatom 209 61 5 0 0 0 - - - 0;
#X obj 209 34 t b f;
#X obj 19 365 *~ 0.3;
#N canvas 379 24 1167 937 karplusStrongSynth 0;
#X obj 162 47 inlet;
#X obj 117 147 noise~;
#X obj 117 176 *~;
#X obj 162 127 bng 15 250 50 0 empty empty empty 17 7 0 10 #fcfcfc #000000 #000000;
#N canvas 603 310 450 300 env 0;
#X obj 37 37 inlet;
#X obj 47 191 tgl 15 0 empty empty empty 17 7 0 10 #fcfcfc #000000 #000000 0 1;
#X obj 41 67 t b b, f 9;
#X msg 41 141 0;
#X msg 146 140 1;
#X obj 47 211 outlet;
#X obj 41 104 del 20;
#X connect 0 0 2 0;
#X connect 1 0 5 0;
#X connect 2 0 6 0;
#X connect 2 1 4 0;
#X connect 3 0 1 0;
#X connect 4 0 1 0;
#X connect 6 0 3 0;
#X restore 162 147 pd env;
#X floatatom 323 146 5 0 0 0 - - - 0;
#X text 320 126 MIDI NOTE;
#X obj 162 80 t b f;
#X obj 262 393 outlet~;
#X obj 323 167 sig~;
#X obj 323 203 mtof~;
#X obj 262 313 *~ 0.999;
#X obj 262 350 lop~ 3000;
#X obj 262 248 /~;
#X obj 262 203 sig~ 1000;
#X obj 117 390 delwrite~ del3 500;
#X obj 262 276 delread4~ del3;
#X connect 0 0 7 0;
#X connect 1 0 2 0;
#X connect 2 0 15 0;
#X connect 3 0 4 0;
#X connect 4 0 2 1;
#X connect 5 0 9 0;
#X connect 7 0 3 0;
#X connect 7 1 5 0;
#X connect 9 0 10 0;
#X connect 10 0 13 1;
#X connect 11 0 12 0;
#X connect 12 0 8 0;
#X connect 12 0 15 0;
#X connect 13 0 16 0;
#X connect 14 0 13 0;
#X connect 16 0 11 0;
#X restore 386 86 pd karplusStrongSynth;
#X floatatom 386 61 5 0 0 0 - - - 0;
#X obj 386 34 t b f;
#N canvas 379 24 1167 937 karplusStrongSynth 0;
#X obj 162 47 inlet;
#X obj 117 147 noise~;
#X obj 117 176 *~;
#X obj 162 127 bng 15 250 50 0 empty empty empty 17 7 0 10 #fcfcfc #000000 #000000;
#N canvas 603 310 450 300 env 0;
#X obj 37 37 inlet;
#X obj 47 191 tgl 15 0 empty empty empty 17 7 0 10 #fcfcfc #000000 #000000 0 1;
#X obj 41 67 t b b, f 9;
#X msg 41 141 0;
#X msg 146 140 1;
#X obj 47 211 outlet;
#X obj 41 104 del 20;
#X connect 0 0 2 0;
#X connect 1 0 5 0;
#X connect 2 0 6 0;
#X connect 2 1 4 0;
#X connect 3 0 1 0;
#X connect 4 0 1 0;
#X connect 6 0 3 0;
#X restore 162 147 pd env;
#X floatatom 323 146 5 0 0 0 - - - 0;
#X text 320 126 MIDI NOTE;
#X obj 162 80 t b f;
#X obj 262 393 outlet~;
#X obj 323 167 sig~;
#X obj 323 203 mtof~;
#X obj 262 313 *~ 0.999;
#X obj 262 350 lop~ 3000;
#X obj 262 248 /~;
#X obj 262 203 sig~ 1000;
#X obj 262 276 delread4~ del4;
#X obj 117 390 delwrite~ del4 500;
#X connect 0 0 7 0;
#X connect 1 0 2 0;
#X connect 2 0 16 0;
#X connect 3 0 4 0;
#X connect 4 0 2 1;
#X connect 5 0 9 0;
#X connect 7 0 3 0;
#X connect 7 1 5 0;
#X connect 9 0 10 0;
#X connect 10 0 13 1;
#X connect 11 0 12 0;
#X connect 12 0 8 0;
#X connect 12 0 16 0;
#X connect 13 0 15 0;
#X connect 14 0 13 0;
#X connect 15 0 11 0;
#X restore 560 86 pd karplusStrongSynth;
#X floatatom 560 61 5 0 0 0 - - - 0;
#X obj 560 34 t b f;
#X obj 18 9 r player1 @hv_param 60 72 65;
#X obj 560 9 r player4 @hv_param 60 72 65;
#X obj 386 9 r player3 @hv_param 60 72 65;
#X obj 209 9 r player2 @hv_param 60 72 65;
#X obj 18 123 send~ out;
#X obj 209 126 send~ out;
#X obj 386 129 send~ out;
#X obj 560 134 send~ out;
#N canvas 379 24 1167 937 karplusStrongSynth 0;
#X obj 162 47 inlet;
#X obj 117 147 noise~;
#X obj 117 176 *~;
#X obj 162 127 bng 15 250 50 0 empty empty empty 17 7 0 10 #fcfcfc #000000 #000000;
#N canvas 603 310 450 300 env 0;
#X obj 37 37 inlet;
#X obj 47 191 tgl 15 0 empty empty empty 17 7 0 10 #fcfcfc #000000 #000000 0 1;
#X obj 41 67 t b b, f 9;
#X msg 41 141 0;
#X msg 146 140 1;
#X obj 47 211 outlet;
#X obj 41 104 del 20;
#X connect 0 0 2 0;
#X connect 1 0 5 0;
#X connect 2 0 6 0;
#X connect 2 1 4 0;
#X connect 3 0 1 0;
#X connect 4 0 1 0;
#X connect 6 0 3 0;
#X restore 162 147 pd env;
#X floatatom 323 146 5 0 0 0 - - - 0;
#X text 320 126 MIDI NOTE;
#X obj 162 80 t b f;
#X obj 262 393 outlet~;
#X obj 323 167 sig~;
#X obj 323 203 mtof~;
#X obj 262 313 *~ 0.999;
#X obj 262 350 lop~ 3000;
#X obj 262 248 /~;
#X obj 262 203 sig~ 1000;
#X obj 262 276 delread4~ del5;
#X obj 117 390 delwrite~ del5 500;
#X connect 0 0 7 0;
#X connect 1 0 2 0;
#X connect 2 0 16 0;
#X connect 3 0 4 0;
#X connect 4 0 2 1;
#X connect 5 0 9 0;
#X connect 7 0 3 0;
#X connect 7 1 5 0;
#X connect 9 0 10 0;
#X connect 10 0 13 1;
#X connect 11 0 12 0;
#X connect 12 0 8 0;
#X connect 12 0 16 0;
#X connect 13 0 15 0;
#X connect 14 0 13 0;
#X connect 15 0 11 0;
#X restore 205 272 pd karplusStrongSynth;
#X floatatom 205 247 5 0 0 0 - - - 0;
#X obj 205 220 t b f;
#N canvas 379 24 1167 937 karplusStrongSynth 0;
#X obj 162 47 inlet;
#X obj 117 147 noise~;
#X obj 117 176 *~;
#X obj 162 127 bng 15 250 50 0 empty empty empty 17 7 0 10 #fcfcfc #000000 #000000;
#N canvas 603 310 450 300 env 0;
#X obj 37 37 inlet;
#X obj 47 191 tgl 15 0 empty empty empty 17 7 0 10 #fcfcfc #000000 #000000 0 1;
#X obj 41 67 t b b, f 9;
#X msg 41 141 0;
#X msg 146 140 1;
#X obj 47 211 outlet;
#X obj 41 104 del 20;
#X connect 0 0 2 0;
#X connect 1 0 5 0;
#X connect 2 0 6 0;
#X connect 2 1 4 0;
#X connect 3 0 1 0;
#X connect 4 0 1 0;
#X connect 6 0 3 0;
#X restore 162 147 pd env;
#X floatatom 323 146 5 0 0 0 - - - 0;
#X text 320 126 MIDI NOTE;
#X obj 162 80 t b f;
#X obj 262 393 outlet~;
#X obj 323 167 sig~;
#X obj 323 203 mtof~;
#X obj 262 313 *~ 0.999;
#X obj 262 350 lop~ 3000;
#X obj 262 248 /~;
#X obj 262 203 sig~ 1000;
#X obj 117 390 delwrite~ del6 500;
#X obj 262 276 delread4~ del6;
#X connect 0 0 7 0;
#X connect 1 0 2 0;
#X connect 2 0 15 0;
#X connect 3 0 4 0;
#X connect 4 0 2 1;
#X connect 5 0 9 0;
#X connect 7 0 3 0;
#X connect 7 1 5 0;
#X connect 9 0 10 0;
#X connect 10 0 13 1;
#X connect 11 0 12 0;
#X connect 12 0 8 0;
#X connect 12 0 15 0;
#X connect 13 0 16 0;
#X connect 14 0 13 0;
#X connect 16 0 11 0;
#X restore 382 272 pd karplusStrongSynth;
#X floatatom 382 247 5 0 0 0 - - - 0;
#X obj 382 220 t b f;
#N canvas 19 49 1167 937 karplusStrongSynth 0;
#X obj 162 47 inlet;
#X obj 117 147 noise~;
#X obj 117 176 *~;
#X obj 162 127 bng 15 250 50 0 empty empty empty 17 7 0 10 #fcfcfc #000000 #000000;
#N canvas 603 310 450 300 env 0;
#X obj 37 37 inlet;
#X obj 47 191 tgl 15 0 empty empty empty 17 7 0 10 #fcfcfc #000000 #000000 0 1;
#X obj 41 67 t b b, f 9;
#X msg 41 141 0;
#X msg 146 140 1;
#X obj 47 211 outlet;
#X obj 41 104 del 20;
#X connect 0 0 2 0;
#X connect 1 0 5 0;
#X connect 2 0 6 0;
#X connect 2 1 4 0;
#X connect 3 0 1 0;
#X connect 4 0 1 0;
#X connect 6 0 3 0;
#X restore 162 147 pd env;
#X floatatom 323 146 5 0 0 0 - - - 0;
#X text 320 126 MIDI NOTE;
#X obj 162 80 t b f;
#X obj 262 393 outlet~;
#X obj 323 167 sig~;
#X obj 323 203 mtof~;
#X obj 262 313 *~ 0.999;
#X obj 262 350 lop~ 3000;
#X obj 262 248 /~;
#X obj 262 203 sig~ 1000;
#X obj 262 276 delread4~ del7;
#X obj 117 390 delwrite~ del7 500;
#X connect 0 0 7 0;
#X connect 1 0 2 0;
#X connect 2 0 16 0;
#X connect 3 0 4 0;
#X connect 4 0 2 1;
#X connect 5 0 9 0;
#X connect 7 0 3 0;
#X connect 7 1 5 0;
#X connect 9 0 10 0;
#X connect 10 0 13 1;
#X connect 11 0 12 0;
#X connect 12 0 8 0;
#X connect 12 0 16 0;
#X connect 13 0 15 0;
#X connect 14 0 13 0;
#X connect 15 0 11 0;
#X restore 556 272 pd karplusStrongSynth;
#X floatatom 556 247 5 0 0 0 - - - 0;
#X obj 556 220 t b f;
#X obj 205 312 send~ out;
#X obj 382 315 send~ out;
#X obj 556 320 send~ out;
#X obj 205 195 r player5 @hv_param 60 72 65;
#X obj 382 195 r player6 @hv_param 60 72 65;
#X obj 556 195 r player7 @hv_param 60 72 65;
#X obj 19 288 receive~ out;
#X connect 1 0 18 0;
#X connect 2 0 1 0;
#X connect 3 0 2 0;
#X connect 3 1 2 0;
#X connect 4 0 19 0;
#X connect 5 0 4 0;
#X connect 6 0 5 0;
#X connect 6 1 5 0;
#X connect 7 0 0 0;
#X connect 7 0 0 1;
#X connect 8 0 20 0;
#X connect 9 0 8 0;
#X connect 10 0 9 0;
#X connect 10 1 9 0;
#X connect 11 0 21 0;
#X connect 12 0 11 0;
#X connect 13 0 12 0;
#X connect 13 1 12 0;
#X connect 14 0 3 0;
#X connect 15 0 13 0;
#X connect 16 0 10 0;
#X connect 17 0 6 0;
#X connect 22 0 31 0;
#X connect 23 0 22 0;
#X connect 24 0 23 0;
#X connect 24 1 23 0;
#X connect 25 0 32 0;
#X connect 26 0 25 0;
#X connect 27 0 26 0;
#X connect 27 1 26 0;
#X connect 28 0 33 0;
#X connect 29 0 28 0;
#X connect 30 0 29 0;
#X connect 30 1 29 0;
#X connect 34 0 24 0;
#X connect 35 0 27 0;
#X connect 36 0 30 0;
#X connect 37 0 7 0;
